<?xml version="1.0" encoding="UTF-8" standalone="no"?>
<svg
   xmlns:dc="http://purl.org/dc/elements/1.1/"
   xmlns:cc="http://creativecommons.org/ns#"
   xmlns:rdf="http://www.w3.org/1999/02/22-rdf-syntax-ns#"
   xmlns:svg="http://www.w3.org/2000/svg"
   xmlns="http://www.w3.org/2000/svg"
   xmlns:sodipodi="http://sodipodi.sourceforge.net/DTD/sodipodi-0.dtd"
   xmlns:inkscape="http://www.inkscape.org/namespaces/inkscape"
   viewBox="0 0 570 720"
   version="1.1"
   id="svg3817"
   sodipodi:docname="MashTub.svg"
   inkscape:version="0.92.2 5c3e80d, 2017-08-06">
  <metadata
     id="metadata3823">
    <rdf:RDF>
      <cc:Work
         rdf:about="">
        <dc:format>image/svg+xml</dc:format>
        <dc:type
           rdf:resource="http://purl.org/dc/dcmitype/StillImage" />
        <dc:title></dc:title>
      </cc:Work>
    </rdf:RDF>
  </metadata>
  <defs
     id="defs3821" />
  <sodipodi:namedview
     pagecolor="#ffffff"
     bordercolor="#666666"
     borderopacity="1"
     objecttolerance="10"
     gridtolerance="10"
     guidetolerance="10"
     inkscape:pageopacity="0"
     inkscape:pageshadow="2"
     inkscape:window-width="1366"
     inkscape:window-height="687"
     id="namedview3819"
     showgrid="false"
     inkscape:zoom="0.47140452"
     inkscape:cx="262.3"
     inkscape:cy="511.62566"
     inkscape:window-x="0"
     inkscape:window-y="0"
     inkscape:window-maximized="1"
     inkscape:current-layer="svg3817" />
  <path
     d="m 158.36719,1.6542969 0.0137,0.00195 c -3.6193,0.11232 -7.51865,1.4493 -11.93945,4.9375 -10.83,-4.1763 -21.32875,-5.6272 -30.71875,2.875 -14.5,-1.8808 -19.213207,2.0002501 -22.783207,6.5312501 -3.183,-0.066 -23.81825,-3.27225 -33.28125,10.84375 -23.781,-2.814 -31.29725,13.98825 -22.78125,29.65625 -4.8569,7.519 -9.88955,14.94725 1.46875,29.28125 -4.018,7.9835 -1.5274,16.644003 7.9375,27.125003 -2.4979,11.223 2.41185,19.1415 11.21875,25.3125 -1.6471,15.358 14.08425,24.28675 18.78125,27.46875 1.8037,8.9487 5.56315,17.39155 23.53125,22.06055 2.963197,13.336 13.761747,15.64045 24.218747,18.43945 -34.561997,20.09 -64.200997,46.52191 -63.999997,111.37891 l -5.0625,9.03125 c -39.63,24.1 -75.284297,101.56148 -19.529297,164.52148 3.6419,19.708 9.7491,33.8623 15.1875,49.5293 8.1338,63.131 61.217754,92.69345 75.218754,96.18945 300.6449,92.04156 245.40516,-359.06327 161.02734,-550.558596 -4.5121,-15.802 -17.2065,-46.535 -42.8125,-61.625 l -9.46875,0.1875 c -8.15,-8.245 -13.31102,-16.0567502 -30.29102,-12.46875 -7.65,-2.8378002 -11.19929,-9.8064502 -26.77929,-4.7187502 -6.3797,-2.0185 -12.24725,-6.2144 -19.15625,-6 z"
     id="path3789"
     inkscape:connector-curvature="0"
     sodipodi:nodetypes="ccccccccccccccccccccccccc" />
  <path
     fill="#bc1142"
     d="M72.91,342.09c36.41-9.76,12.292,150.63-17.333,137.47-32.587-26.21-43.083-102.97,17.333-137.47z"
     id="path3801" />
  <path
     fill="#bc1142"
     d="m288.91,619.12c32.697-1.4271,76.571,10.532,76.657,26.396,0.5427,15.405-39.79,50.211-78.826,49.538-40.427,1.7439-80.069-33.116-79.55-45.199-0.60506-17.716,49.226-31.548,81.719-30.735z"
     id="path3811" />
  <path
     fill="#bc1142"
     d="m168.14,525.1c23.279,28.046,33.891,77.319,14.464,91.844-18.379,11.088-63.012,6.5216-94.736-39.052-21.395-38.242-18.638-77.157-3.6159-88.589,22.464-13.684,57.173,4.799,83.889,35.797z"
     id="path3813" />
  <g
     id="g6491">
    <path
       inkscape:connector-curvature="0"
       id="path5898"
       d="m 448.83008,-55.566406 c -22.62449,6.844433 -48.05625,7.447752 -67.86914,21.617187 -8.93939,6.243411 -14.93957,15.775052 -21.92383,23.720703 -6.63166,-1.585876 -13.16918,2.4948372 -17.43555,6.869141 -6.95365,-1.3062227 -11.06617,5.6846815 -13.10937,11.1933594 -3.54684,6.7171766 -4.19023,15.0155006 -8.57422,20.9941406 -3.79971,2.539411 -5.21992,7.282147 -6.73633,11.210937 -8.2285,1.45989 -10.06771,10.891657 -10.20703,17.890626 0.43158,2.903864 -4.07116,1.295447 -5.34766,3.662109 -6.12429,6.250873 -1.78042,15.837344 -2.78515,23.371094 -0.25669,2.666728 -4.30263,3.474184 -4.89844,6.470703 -3.92848,8.290188 2.70388,16.566856 2.44726,24.818356 -6.36739,10.096 0.66069,21.52465 2.60547,31.79883 3.93054,20.21328 8.5993,43.14958 25.68555,56.60156 8.13339,5.21572 18.64984,4.76913 27.35547,2.01368 2.51399,1.28793 7.42051,1.46924 5.79492,5.4375 -0.72677,19.65922 13.20325,35.8834 25.89258,49.32031 9.48489,9.05216 20.24464,17.82011 32.83984,21.79297 3.02072,0.37452 4.94033,-4.81886 7.50456,-1.60508 6.52828,2.76759 13.41984,7.05272 20.19076,7.63633 3.20057,-0.82907 2.65289,-6.81671 5.99609,-4.99024 10.20535,2.88441 20.4893,5.54755 30.44726,9.23047 -0.31719,-3.40511 -3.06024,-8.57358 -2.39648,-10.95508 8.5601,0.52878 17.13963,0.64038 25.70117,1.14649 -0.11326,-2.70235 -0.57589,-5.47876 -2.10351,-7.77149 5.45966,0.45843 12.55954,0.0689 15.52734,-5.0039 15.18842,-0.5188 30.01573,-5.14606 45.02296,-7.44045 7.64262,-0.003 0.60529,-2.8599 -2.45851,-4.73143 -4.13239,-1.43382 -1.40255,-1.5389 1.59766,-1.24023 19.15286,0.16632 40.85543,-1.46096 55.45898,-15.24805 6.84254,-10.65332 -5.01197,-25.85677 -16.98828,-22.89453 -10.61885,-0.61256 -21.88102,0.49299 -32,-1.94141 -0.98984,-6.5952 -7.64341,-10.19586 -9.44922,-16.41797 -3.01068,-4.83259 -8.51535,-7.09212 -13.41796,-9.47656 12.36401,-8.45302 21.60384,-20.80538 27.87304,-34.29101 -1.16101,-0.0598 2.33493,-3.10199 2.75781,-4.24805 3.3131,-4.55005 6.24996,-9.35881 9.0918,-14.21289 -0.56366,-3.20282 -6.90646,-2.81214 -2.35351,-5.91406 5.6427,-7.27713 10.93414,-14.81665 16.36132,-22.25391 -1.29595,-1.59049 -6.69295,-1.80278 -6.23046,-3.54883 5.88678,-8.104195 8.76914,-17.948157 12.34961,-27.003904 5.17955,-6.461382 8.09386,-16.385746 3.125,-23.775391 C 633.23172,41.486439 664.87637,32.346312 695.55469,21.394531 665.45251,0.39189563 625.14735,0.36226167 591.79102,13.146484 c -5.8823,1.17252 -11.05305,4.594983 -16.97266,5.617188 -7.07027,-6.934079 -18.04309,-5.388366 -26.80469,-5 -9.00923,-5.0932699 -19.51991,0.259714 -28.91797,1.460937 -3.61209,0.681347 -7.95721,4.494228 -10.45312,0.324219 -7.28087,-4.653192 -15.52088,1.51535 -22.87795,2.734039 -3.50589,0.630856 -7.54397,3.145459 -10.84471,2.713227 -5.68033,-5.642943 -15.01724,-4.74927 -21.39648,-0.826172 -0.35589,-3.758936 2.27149,-9.826445 -2.41406,-11.6093751 -5.26651,0.2670276 -7.86393,6.3285241 -12.34036,8.4829961 -5.7018,4.346315 -11.64264,8.484007 -17.6616,12.450598 0.23898,-8.826664 -2.82356,-18.597317 -10.4082,-23.462891 -0.0848,-4.5269022 -2.19149,-8.9704179 -5.61524,-11.9277344 15.80296,-17.9303456 34.44217,-33.1132996 50.08008,-51.2050776 -2.11133,0.511718 -4.22265,1.023437 -6.33398,1.535156 z"
       style="fill:#000000;fill-opacity:1;stroke-width:0.99999994" />
    <path
       sodipodi:nodetypes="ccccccccccccccccccccccccccccccccccsccccccccscccccccccccccccccccccccccccccccccccccccscccccccccccccccccccccccccssscccccccc"
       inkscape:connector-curvature="0"
       id="path3793"
       d="m 404.25803,-28.310229 c -27.05398,7.247915 -49.41737,58.543675 -49.36584,57.526721 l 1.14127,-22.514937 c 0.47768,-9.426163 -11.48301,31.497487 -12.70887,38.61136 -3.39953,1.661299 -4.76112,-10.87325 -5.73919,-15.657944 -2.58093,7.504693 -4.03028,23.012137 -4.76952,29.878065 -4.10744,1.671166 -4.21299,-4.786909 -5.60517,-8.632111 -3.41482,11.902192 -2.96683,17.964967 -2.50008,24.001307 -4.61511,1.714271 -5.6081,-2.778692 -7.10141,-6.41458 -1.18789,9.72065 0.4062,15.915271 1.84404,22.306806 -2.64627,0.481118 -5.18466,2.05032 -8.40276,-3.223792 0.27983,7.50591 1.82719,13.877594 4.38069,19.349544 -3.91862,2.44268 -6.14087,-0.59184 -8.85729,-2.02839 1.63378,8.52301 4.65154,14.99726 7.12954,22.26862 -1.11099,0.59846 -3.70797,0.24861 -7.53034,-0.88335 6.01579,21.47326 29.01508,59.61539 56.65717,37.10629 -0.88448,-4.45046 -7.03293,-13.49802 -7.68101,-18.01087 -0.6481,-4.51284 -26.29693,-23.01957 -27.62704,-31.93691 0,0 20.60652,26.29581 24.67254,16.61334 0,0 0.35554,-10.62282 0.35586,-15.30664 3.2e-4,-4.68385 -17.21524,-11.60025 -20.35457,-22.122195 0,0 10.30541,15.350905 21.75179,13.769725 0,0 3.8535,-16.6728 4.0631,-20.163455 0.20457,-3.406711 -8.01257,-0.536048 -14.01167,-12.702408 1.22703,2.418934 5.43537,9.017853 14.59108,7.624851 0.61072,-10.065827 1.4812,-27.510338 10.28881,-35.597425 -4.8389,10.207651 -6.57403,21.544553 -6.28829,32.726747 3.71071,3.567044 14.73938,-10.086914 14.73938,-10.086904 -8.4654,13.155717 -14.17522,13.779572 -13.98399,17.181154 -1.89633,6.667384 -2.6767,11.547117 -2.58599,14.96995 -9.70202,25.16639 -9.92773,53.53154 21.37311,65.18019 4.62098,-4.52838 14.70313,-13.68374 19.58468,-17.95786 4.88155,-4.27416 2.69126,-56.762084 12.29815,-65.270907 0,0 -11.42229,54.967217 3.34585,52.764177 0,0 11.5354,-7.90053 17.13161,-11.47733 5.59624,-3.57682 -2.02876,-39.174773 8.07135,-51.219249 0,0 -8.75469,31.180849 2.14325,44.588859 0,0 21.47742,-14.11014 25.81279,-16.50843 4.20417,-2.325671 -5.54956,-10.531204 3.95389,-27.265894 -2.02537,3.795469 -5.96287,13.905805 2.57019,24.12854 12.50297,-6.905763 25.59974,-12.593513 38.67014,-18.319035 -11.51031,7.236552 -32.09326,21.234319 -32.09326,21.234319 -1.34116,7.4624 23.6518,11.11585 23.6518,11.11585 -22.38027,-0.76181 -27.61793,-7.57616 -31.53143,-4.73406 -3.9135,2.84209 -27.57016,19.27165 -27.57016,19.27165 -1.79988,10.10815 45.26482,16.7036 45.26482,16.7036 -35.12061,-0.37529 -42.81703,-11.37092 -51.35142,-10.81028 -6.37814,0.41888 -17.68034,13.68052 -17.68034,13.68052 2.02701,20.48419 52.26059,19.13027 52.26059,19.13027 -27.39159,6.42783 -44.72601,-4.18026 -60.34263,-7.18172 0,0 -19.32455,16.5302 -21.76272,19.76712 -6.84922,10.80236 4.91455,23.19266 20.83414,28.87934 6.00108,3.71459 25.28201,8.43215 52.09102,13.6149 1e-5,1e-5 16.93967,4.55527 26.27997,6.72958 -10.03506,-0.89203 -20.07972,-1.75458 -30.00579,-3.51189 -3.49169,8.57223 1.93352,14.20568 4.0014,15.96723 -10.4243,-8.67457 -5.7128,-15.9914 -9.07272,-16.58834 -3.44302,-0.61177 -21.01062,-5.05314 -21.01062,-5.05314 -4.2117,10.76017 8.76172,28.65869 8.76172,28.65869 -9.49728,-5.51077 -12.54217,-29.626 -17.09647,-30.72 -4.55422,-1.094 -14.06397,-3.68275 -14.06397,-3.68275 -10.36448,1.6913 9.82918,34.08357 9.82918,34.08357 -8.35976,-3.37672 -18.89793,-37.04444 -23.1345,-38.72897 -4.23653,-1.68452 -13.06114,-5.37224 -17.18178,-7.27207 -28.34439,21.61807 3.36988,52.89251 22.84333,63.75879 -0.2076,-3.98104 0.0578,-6.58733 0.89925,-7.52777 6.49115,4.1083 12.08153,8.55491 19.98698,12.1348 -0.76214,-2.97686 -3.19302,-5.84679 0.0976,-9.08625 4.72392,3.7613 10.55817,6.75458 17.79097,8.78034 -4.37624,-4.36126 -2.25847,-6.46218 -1.17242,-8.9228 5.87872,2.89137 11.52857,5.88792 21.25776,7.00402 -3.1864,-2.30147 -7.32127,-4.3176 -4.57618,-8.40446 5.76026,1.86417 11.54958,3.71891 23.9202,3.17938 -3.41351,-2.25202 -9.66833,-3.86548 -7.08372,-7.46876 6.84859,0.88538 22.26469,3.09981 30.16468,2.34374 -4.42375,-2.06889 -16.29368,-6.32052 -13.88409,-9.2378 7.20339,0.47013 29.63955,7.3081 38.03139,2.98858 l -19.67673,-10.47747 c -0.82641,-0.59486 58.40519,8.79834 82.62384,-3.17153 -31.93349,0.47847 -67.61916,-6.12581 -71.65199,-13.38167 0.67845,-1.09447 17.78443,-2.70649 22.19182,-3.28087 -6.7662,-7.93336 -26.09049,-5.23207 -28.88653,-8.64932 2.17879,-2.56867 11.37172,-5.32401 15.81103,-4.91133 -4.83778,-0.88426 -9.8115,-8.04568 -26.51881,-3.31362 -32.00945,9.06612 -79.85373,-3.36992 -84.70882,-3.8918 3.6815,-1.09732 60.7923,15.42213 92.43302,-1.71259 -5.11477,-0.61158 -7.55127,-1.42675 -10.21913,-4.93469 12.02393,-4.99891 25.04702,-9.53319 32.31922,-16.73331 -4.22142,0.41354 -8.09083,1.64399 -13.93666,-1.71183 10.56162,-6.91285 21.972,-12.65102 30.37099,-22.55533 -5.73633,0.34922 -11.90071,0.95995 -13.87513,-0.9918 9.59646,-7.14397 17.54889,-14.85729 23.97337,-23.09837 -7.92813,1.65174 -11.38187,1.10832 -13.43809,-0.12155 6.98922,-8.50035 25.76816,-24.66328 29.5639,-34.726143 -5.77264,2.558441 -19.48347,2.72827 -23.66385,0.04881 2.10097,-6.094581 29.41714,-10.842754 34.66477,-25.113922 -6.20967,1.142401 -30.00986,6.450437 -31.4548,5.19785 1.89911,-12.094721 46.70469,-37.32643 89.90541,-50.834005 C 610.48824,14.478866 535.35622,54.131113 536.179,52.919314 l 21.3826,-23.617881 c -13.39154,-2.40539 -40.25593,17.273646 -49.71991,21.141474 -4.66048,-3.071945 9.24354,-14.383341 14.19021,-19.286457 -10.99748,2.436061 -30.66446,12.427474 -39.44917,16.727249 -5.22938,-3.968329 2.40482,-9.035616 5.90312,-13.74998 -16.9076,4.729803 -23.79779,9.933227 -30.64225,15.139376 -5.68042,-4.58367 -1.09671,-9.283836 2.07184,-13.967445 -12.54848,5.907211 -18.69322,12.67494 -25.19775,19.392299 -2.65735,-3.01169 -6.52886,-5.054592 -2.7605,-13.191724 -8.74733,6.089836 -17.72488,12.076172 -22.25271,19.515803 -0.24048,-0.125715 -8.43635,12.81618 -9.08582,13.369806 -15.28131,13.026228 -22.29463,34.923266 -19.55221,28.859326 1.3348,-2.95146 -0.14558,-11.502919 8.68132,-20.898121 10.8435,-11.541602 15.97821,-23.129011 15.82845,-23.277936 -0.68376,-7.31106 2.33154,-12.874293 0.26895,-19.008393 -1.91928,5.37152 -3.46552,7.244728 -4.89491,8.024179 -2.26545,-7.342444 7.3026,-19.525739 3.01245,-25.529015 -0.63591,4.412873 -15.67173,10.714601 -18.67835,12.232917 -6.36784,-13.237387 6.38334,-16.104616 9.41113,-26.3954899 -1.58829,4.1512159 -5.68548,-0.1506429 -21.14483,14.0158629 -6.11278,-5.6165 14.56015,-36.290157 30.70737,-50.725393 z"
       style="fill:#75a928;stroke-width:0.99999994" />
  </g>
  <path
     fill="#75a928"
     d="m107.39,68.056c67.948,35.031,107.45,63.369,129.09,87.504-11.082,44.418-68.896,46.445-90.036,45.199,4.3284-2.0147,7.9399-4.4278,9.2205-8.1357-5.3045-3.7698-24.113-0.39719-37.244-7.7742,5.0441-1.045,7.4035-2.063,9.7629-5.7854-12.406-3.9567-25.769-7.3664-33.628-13.921,4.2413,0.0524,8.2012,0.9488,13.74-2.8927-11.112-5.9882-22.969-10.734-32.181-19.887,5.7452-0.14063,11.939-0.0568,13.74-2.1695-10.17-6.3007-18.751-13.308-25.854-20.972,8.04,0.97052,11.435,0.13478,13.379-1.2656-7.6878-7.8742-17.418-14.523-22.057-24.226,5.9696,2.0575,11.431,2.8451,15.368-0.1808-2.6124-5.8935-13.805-9.3696-20.249-23.142,6.2844,0.60938,12.95,1.3711,14.283,0-2.917-11.884-7.922-18.565-12.831-25.487,13.45-0.2,33.828,0.052,32.905-1.085l-8.3165-8.4973c13.138-3.5372,26.581,0.56816,36.34,3.6159,4.3819-3.4577-0.0776-7.83-5.4238-12.294,11.165,1.4906,21.254,4.0574,30.373,7.5934,4.8724-4.3993-3.1639-8.7987-7.051-13.198,17.249,3.2726,24.557,7.8707,31.82,12.475,5.2694-5.0508,0.30166-9.3433-3.2543-13.74,13.006,4.817,19.705,11.036,26.758,17.175,2.3912-3.2271,6.0749-5.5924,1.6272-13.379,9.2342,5.3227,16.189,11.595,21.334,18.622,5.7134-3.6379,3.4039-8.613,3.4351-13.198,9.5966,7.8065,15.687,16.114,23.142,24.226,1.5017-1.0934,2.8166-4.8017,3.9775-10.667,22.895,22.212,55.246,78.158,8.3165,100.34-39.94-32.94-87.64-56.883-140.5-74.844z"
     id="path3791" />
  <g
     transform="matrix(6.0761311,0,0,5.6530447,-67.7495,76.4435)"
     id="g5064">
    <path
       style="fill:#000000;fill-opacity:1;fill-rule:evenodd;stroke:#000000;stroke-width:5.86077118px;stroke-linecap:butt;stroke-linejoin:miter;stroke-opacity:1"
       d="m 885.75,261.39844 -148.74805,2.01172 c -8.79391,36.92395 -26.75,107.04492 -26.75,107.04492 0,0 -45,28.5 -25.5,49.5 19.5,21 40.13672,61.49805 40.13672,61.49804 0,0 0.33528,43.23417 -20.63672,52.50196 -9.73376,4.30147 -17.86096,21.09046 -23.77929,37.84765 l 191.73828,7.23633 42.90039,-18.17773 79.7832,-91.92383 22.13087,-22.58594 35.4316,-133.11133 5.7305,-23.93164 z"
       transform="matrix(0.16457841,0,0,0.17689582,-69.575605,-2.9087865)"
       id="path4990"
       inkscape:connector-curvature="0" />
    <g
       style="stroke-width:3.59507823;stroke-miterlimit:4;stroke-dasharray:none"
       transform="matrix(1.291968,0,0,0.95818981,-19.800061,-6.0397102)"
       id="g4933">
      <path
         style="fill:#1f8b4b;fill-opacity:1;fill-rule:evenodd;stroke:#000000;stroke-width:23.44308662;stroke-linecap:butt;stroke-linejoin:miter;stroke-miterlimit:4;stroke-dasharray:none;stroke-opacity:1"
         d="m 285.38086,104.5 c -17.06413,0.41314 -24.24805,18.5918 -24.24805,18.5918 0,0 19.15802,27.90985 10.64258,61.69531 0,0 -42.60701,9.39843 -56.52539,12.06836 3.54947,48.33066 -45.66797,79.29189 -45.66797,83.38672 95.93621,5.2689 115.57823,11.30439 119.22461,108.72656 C 393.12072,350.7765 395.25,321.39844 395.25,321.39844 c 0,0 68.12341,30.84802 172.4375,27.91015 -6.10999,-32.8242 -20.1852,-59.10066 -38.69922,-80.14062 -5.15771,0.88766 -10.33557,1.55799 -15.55664,1.73633 -43.72843,7.15671 -60.3212,12.86552 -87.07861,11.25184 -12.5952,-3.97286 -37.14353,-11.68015 -46.62842,-20.73231 -12.68933,-13.43691 -26.61935,-29.66109 -25.89258,-49.32031 -4.12571,-10.07481 -6.01005,-14.57011 -3.5293,-24.51758 -19.247,-2.52113 -31.6914,-2.79883 -31.6914,-2.79883 0,0 10.64401,-35.25501 -12.77344,-73.44727 -7.98322,-5.14126 -14.76899,-6.97755 -20.45703,-6.83984 z"
         transform="matrix(0.12738583,0,0,0.1846146,23.95583,-7.8093355)"
         id="path3893"
         inkscape:connector-curvature="0"
         sodipodi:nodetypes="scccccccccccccccs" />
      <path
         style="fill:#1f8b4b;fill-opacity:1;fill-rule:evenodd;stroke:#000000;stroke-width:3.59507823;stroke-linecap:butt;stroke-linejoin:miter;stroke-miterlimit:4;stroke-dasharray:none;stroke-opacity:1"
         d="m 91.027584,85.670653 c 0,0 -14.766747,0.687529 -22.574276,-19.790794 3.525424,-1.898305 8.25274,-7.067297 8.25274,-7.067297 5.086521,1.792002 13.170389,3.294059 18.835242,2.283816 0,0 4.60801,11.063267 -4.513706,24.574275 z"
         id="path3903"
         inkscape:connector-curvature="0"
         sodipodi:nodetypes="ccccc" />
      <path
         style="fill:#1f8b4b;fill-opacity:1;fill-rule:evenodd;stroke:#000000;stroke-width:3.59507823;stroke-linecap:butt;stroke-linejoin:miter;stroke-miterlimit:4;stroke-dasharray:none;stroke-opacity:1"
         d="M 70.645508,83.012573 C 67.120084,80.707489 63.865847,71.08037 63.865847,71.08037 c -3.661016,2.915255 -6.024536,1.458141 -6.024536,1.458141 0,0 -4.687328,7.084233 -8.619531,11.287622 0,0 1.17381,9.989366 11.046029,14.807744 0,0 10.9666,-6.337987 10.377699,-15.621304 z"
         id="path3905"
         inkscape:connector-curvature="0"
         sodipodi:nodetypes="cccccc" />
      <path
         style="fill:#1f8b4b;fill-opacity:1;fill-rule:evenodd;stroke:#000000;stroke-width:3.59507823;stroke-linecap:butt;stroke-linejoin:miter;stroke-miterlimit:4;stroke-dasharray:none;stroke-opacity:1"
         d="m 88.208574,89.840204 c 0,0 1.054669,6.999158 -10.163161,16.970566 0,0 -7.286795,-2.39698 -11.12195,-9.108498 0,0 7.286795,-4.985702 9.012615,-13.423044 4.602186,4.985703 12.272496,5.560976 12.272496,5.560976 z"
         id="path4808"
         inkscape:connector-curvature="0"
         sodipodi:nodetypes="ccccc" />
      <path
         style="fill:#1f8b4b;fill-opacity:1;fill-rule:evenodd;stroke:#000000;stroke-width:3.59507823;stroke-linecap:butt;stroke-linejoin:miter;stroke-miterlimit:4;stroke-dasharray:none;stroke-opacity:1"
         d="m 60.21194,121.00084 c -9.683767,-5.65685 -12.176618,-12.17662 -12.176618,-12.17662 6.232127,-1.62994 10.163162,-9.204371 10.163162,-9.204371 1.629941,2.013461 4.698065,0.09588 4.698065,0.09588 0,0 3.259882,7.862071 9.683767,10.450801 0,0 -3.547519,7.19091 -12.368376,10.83431 z"
         id="path4924"
         inkscape:connector-curvature="0" />
    </g>
  </g>
  <path
     fill="#bc1142"
     d="M196.36,218.65c-62.84-10.61-115.12,26.73-113.01,94.86,2.067,26.12,136.16-90.97,113.01-94.86z"
     id="path3807" />
  <path
     d="m262.84,276.65a61.875,28.125,0,1,1,-123.75,0,61.875,28.125,0,1,1,123.75,0z"
     transform="matrix(0.76741684,-1.1613112,2.171115,1.4224368,-560.88858,217.68859)"
     id="path3797"
     fill="#bc1142" />
  <g
     id="g6497" />
</svg>
